<svg width="36" height="36" viewBox="0 0 612 612" xmlns="http://www.w3.org/2000/svg">
  <title>Hyperium</title>
  <path
    fill="#000000"
    d="m510,8a94.3,94.3 0 0 1 94,94l0,408a94.3,94.3 0 0 1 -94,94l-408,0a94.3,94.3 0 0 1 -94,-94l0,-408a94.3,94.3 0 0 1 94,-94l408,0m0,-8l-408,0c-56.1,0 -102,45.9 -102,102l0,408c0,56.1 45.9,102 102,102l408,0c56.1,0 102,-45.9 102,-102l0,-408c0,-56.1 -45.9,-102 -102,-102z"
    id="svg_1"/>
  <text
    transform="matrix(18.625461661552244,0,0,18.625461661552244,-4104.0471715347785,-4549.9008691460385) "
    xml:space="preserve"
    text-anchor="start"
    font-family="Helvetica, Arial, sans-serif"
    font-size="24"
    id="svg_3"
    y="269.05021"
    x="228.12591"
    fill-opacity="null"
    stroke-opacity="null"
    stroke-width="0"
    fill="#000000">H</text>
</svg>
